<svg aria-hidden="true" style="width:0;height:0;position:absolute;overflow:hidden" xmlns="http://www.w3.org/2000/svg"><defs><symbol id="arrow-left" viewBox="0 0 32 32"><path d="m7.414 16.965 14.861 14.16a1.334 1.334 0 0 0 1.84 0l.016-.016a1.237 1.237 0 0 0 .382-.889 1.22 1.22 0 0 0-.382-.889L10.136 15.998 24.131 2.67a1.222 1.222 0 0 0 .282-1.373 1.231 1.231 0 0 0-.282-.405l-.016-.016a1.336 1.336 0 0 0-1.84 0L7.414 15.036a1.331 1.331 0 0 0 0 1.93z"/></symbol><symbol id="arrow-right" viewBox="0 0 32 32"><path d="M24.586 15.035 9.725.875a1.334 1.334 0 0 0-1.84 0l-.016.016a1.222 1.222 0 0 0-.282 1.373c.065.153.162.291.282.405l13.995 13.333L7.869 29.33a1.212 1.212 0 0 0-.381.889 1.236 1.236 0 0 0 .381.889l.016.016a1.334 1.334 0 0 0 1.84 0l14.861-14.16a1.331 1.331 0 0 0 0-1.93z"/></symbol><symbol id="cross" viewBox="0 0 32 32"><path d="M19.141 16.123 29.817 5.455a2.196 2.196 0 0 0-3.098-3.095L16.043 12.918 5.301 2.184a2.202 2.202 0 0 0-2.983.115 2.193 2.193 0 0 0-.115 2.98l10.72 10.844L2.422 26.484a2.203 2.203 0 0 0-.767 1.582c-.012.302.039.604.15.885.11.282.278.538.492.751s.47.381.752.492a2.203 2.203 0 0 0 2.47-.615l10.479-10.471 10.413 10.405a2.202 2.202 0 0 0 2.983-.115 2.194 2.194 0 0 0 .115-2.979L19.14 16.124z"/></symbol><symbol id="menu-icon" viewBox="0 0 28 28"><path d="M2.333 7A1.167 1.167 0 0 1 3.5 5.833h21a1.167 1.167 0 0 1 0 2.334h-21A1.167 1.167 0 0 1 2.333 7Zm0 7.037A1.167 1.167 0 0 1 3.5 12.871h21a1.167 1.167 0 1 1 0 2.333h-21a1.167 1.167 0 0 1-1.167-1.167ZM3.5 19.908a1.167 1.167 0 0 0 0 2.333h21a1.167 1.167 0 1 0 0-2.333h-21Z"/></symbol><symbol id="menu-logo" viewBox="0 0 762 600"><path d="M265.331 121.043c18.961-37.17 71.967-37.17 90.928 0l24.003 47.055c7.425 14.557 21.345 24.682 37.457 27.245l52.012 8.276c41.198 6.555 57.593 57.168 28.091 86.721l-37.113 37.178a51.233 51.233 0 0 0-14.336 44.171l8.196 51.987c6.504 41.256-36.394 72.518-73.555 53.605l-47.098-23.971a50.966 50.966 0 0 0-46.242 0l-47.097 23.971c-37.162 18.913-80.059-12.349-73.555-53.605l8.196-51.987a51.235 51.235 0 0 0-14.336-44.171l-37.113-37.178c-29.502-29.553-13.108-80.166 28.09-86.721l52.013-8.276c16.112-2.563 30.031-12.688 37.457-27.245l24.002-47.055Z" fill="#FFE550"/><path d="m20.943 381.694-.398.094c.05 1.39-.02 7.014-.207 16.872-.054 9.827-.067 16.279-.04 19.357-.002 2.944-.065 5.343-.186 7.194.01 1.82.017 3.921.021 6.304-.027 2.249-.15 4.101-.365 5.554l-.345 3.866c-.261 2.446-.79 3.762-1.585 3.95-1.722.408-4.415-.918-8.077-3.977-3.693-3.192-5.823-5.983-6.388-8.373-.565-2.389-.714-19.879-.446-52.467.4-32.62-.476-54.073-2.629-64.359-.47-1.991-.384-3.694.261-5.109.666-3.101 4.104-6.018 10.315-8.749 6.343-2.762 15.809-5.632 28.398-8.61 12.721-3.01 22.817-4.697 30.287-5.062 7.602-.397 11.686.6 12.251 2.989.377 1.594-.482 2.989-2.578 4.185a108.462 108.462 0 0 1-5.586 3.004c-1.66.673-3.835 1.538-6.523 2.595-2.72.924-5.241 1.801-7.564 2.63-2.354.697-5.405 1.7-9.154 3.007a613.538 613.538 0 0 0-10.053 3.64c-3.118 1.018-7.315 2.502-12.591 4.451-5.276 1.949-8.694 3.178-10.252 3.687.226.367.434.949.622 1.745 1.476 6.24 2.284 21.19 2.423 44.85 8.31-1.545 17.075-3.829 26.295-6.851 9.353-3.054 15.09-4.832 17.21-5.333 5.035-1.191 7.804-.725 8.307 1.399.973 4.116-3.975 8.932-14.844 14.447-10.737 5.484-22.93 9.841-36.579 13.07ZM150.703 345.108c-1.068-4.514-2.802-8.59-5.201-12.228-2.432-3.771-5.258-6.256-8.481-7.457-8.547 4.686-14.751 13.654-18.614 26.905-3.761 13.087-4.433 24.742-2.015 34.965 2.418 10.223 6.444 16 12.076 17.331 9.101-4.116 15.646-12.534 19.634-25.253 4.089-12.884 4.956-24.305 2.601-34.263Zm-51.854 14.16c2.189-11.453 6.209-21.376 12.059-29.77 5.952-8.558 12.837-13.762 20.656-15.612 7.951-1.881 15.377-.063 22.279 5.455 6.871 5.384 11.453 12.922 13.745 22.614 2.261 9.559 2.266 19.933.014 31.12-2.282 11.055-6.747 20.873-13.392 29.455-6.545 8.418-14.389 13.708-23.533 15.871-6.758 1.599-13.128-.189-19.11-5.363-5.981-5.174-10.102-12.54-12.363-22.1-2.293-9.692-2.41-20.248-.355-31.67ZM240.772 323.801c-1.068-4.514-2.801-8.59-5.201-12.229-2.431-3.77-5.258-6.256-8.481-7.456-8.547 4.685-14.751 13.653-18.614 26.904-3.761 13.087-4.432 24.742-2.014 34.965 2.418 10.223 6.443 16 12.075 17.331 9.102-4.115 15.646-12.533 19.634-25.253 4.089-12.884 4.956-24.305 2.601-34.262Zm-51.854 14.159c2.189-11.453 6.209-21.376 12.059-29.77 5.952-8.558 12.837-13.762 20.656-15.611 7.951-1.881 15.377-.063 22.28 5.454 6.87 5.384 11.452 12.922 13.744 22.614 2.261 9.56 2.266 19.933.015 31.12-2.283 11.055-6.747 20.873-13.393 29.455-6.545 8.418-14.389 13.709-23.533 15.872-6.758 1.599-13.128-.189-19.109-5.363-5.982-5.174-10.103-12.541-12.364-22.1-2.292-9.692-2.411-20.249-.355-31.671ZM334.69 206.951c2.12-.502 5.175.878 9.165 4.14 4.091 3.098 6.545 6.373 7.361 9.825.817 3.452 1.484 13.669 2.002 30.65.487 16.848.585 34.42.295 52.714-.372 41.025-2.081 61.898-5.129 62.619-1.856.438-4.176-.204-6.963-1.928-2.686-1.888-4.232-3.696-4.641-5.422-.408-1.725-.761-5.287-1.058-10.684-9.846 16.348-19.606 25.667-29.279 27.956-5.831 1.379-11.76-.022-17.787-4.204-5.894-4.214-9.516-9.175-10.866-14.884-1.947-8.232-2.069-18.507-.365-30.827 1.805-12.484 5.782-24.36 11.933-35.628 6.15-11.269 13.929-18.016 23.338-20.242 9.409-2.226 17.303 1.865 23.682 12.272.101-29.745-1.448-52.861-4.648-69.348-.942-3.983.044-6.319 2.96-7.009Zm1.263 102.955c-1.696-7.169-4.384-12.913-8.063-17.229-3.548-4.348-7.044-6.115-10.489-5.3-5.698 1.348-10.697 6.246-14.996 14.693-4.299 8.448-7.154 17.675-8.565 27.682-1.31 9.843-1.18 18.084.39 24.722.566 2.39 1.882 4.112 3.951 5.164 2.068 1.053 4.294 1.298 6.68.733 5.168-1.222 11.246-6.586 18.233-16.09 7.12-9.535 11.474-19.818 13.063-30.849l.031-2.53-.235-.996ZM462.85 297.971c2.576 10.887-.161 21.208-8.208 30.962-8.079 9.622-18.48 15.938-31.201 18.948-12.589 2.978-23.761 2.186-33.516-2.376-9.786-4.695-15.37-9.963-16.751-15.805-.943-3.983-.221-6.256 2.164-6.821 2.121-.501 7.049 1.698 14.784 6.597 2.919 1.693 6.602 3.065 11.049 4.116 4.579 1.019 9.121.996 13.626-.07 9.277-2.194 16.927-6.527 22.953-13 6.157-6.504 8.577-12.544 7.258-18.12-.848-3.584-4.317-7.601-10.406-12.048-6.09-4.448-12.631-8.438-19.623-11.971a154.143 154.143 0 0 1-19.519-12.416c-6.121-4.581-9.574-8.531-10.359-11.85-.785-3.319-.954-6.994-.509-11.025.446-4.031 1.26-7.097 2.442-9.199 3.818-6.932 10.595-14.073 20.331-21.423 9.868-7.382 18.512-11.95 25.933-13.706 3.843-.909 7.388-.416 10.635 1.48 3.247 1.895 5.2 4.237 5.86 7.025.314 1.328-.826 2.719-3.421 4.174-2.594 1.455-6.583 3.52-11.968 6.196-5.283 2.512-9.906 5.148-13.871 7.908-13.858 9.447-20.143 16.892-18.855 22.336.691 2.92 10.374 9.252 29.05 18.993 7.188 3.767 13.984 8.539 20.387 14.314 6.505 5.611 10.417 11.205 11.735 16.781ZM508.511 307.988c.597 2.523 2.353 3.439 5.268 2.749 5.035-1.191 10.801-4.027 17.298-8.508 6.597-4.645 10.294-7.062 11.089-7.25 2.385-.564 3.876.415 4.473 2.938.91 3.85-2.013 9.238-8.771 16.164-6.625 6.895-13.184 11.11-19.677 12.646-6.361 1.505-12.07 1.033-17.127-1.416-5.088-2.581-8.072-5.731-8.951-9.448-.88-3.717-1.199-8.619-.96-14.704.209-6.218.656-14.385 1.342-24.501.787-10.28 1.303-18.744 1.55-25.392-5.883 2.934-9.884 4.652-12.004 5.154-2.121.501-4.492-.059-7.115-1.682-2.521-1.787-4.018-3.676-4.489-5.667-.753-3.187 7.138-8.278 23.674-15.274-.221-11.584-1.337-21.625-3.347-30.122-.942-3.983-.087-6.288 2.563-6.915 2.253-.533 5.381.269 9.385 2.406 3.972 2.005 6.382 4.799 7.23 8.384.848 3.585 1.213 10.158 1.096 19.719 7.396-2.451 13.347-4.209 17.853-5.275 7.951-1.881 12.334-1.096 13.151 2.356.471 1.992-1.323 4.169-5.382 6.531-3.927 2.331-12.451 6.52-25.573 12.569-.302 11.146-.972 23.993-2.009 38.538-1.069 14.412-1.258 23.079-.567 26ZM597.338 203.698c5.963-1.41 12.185.342 18.665 5.258 6.449 4.783 10.254 9.631 11.416 14.543 1.13 4.78.636 10.084-1.484 15.913 2.062 1.615 3.265 3.153 3.61 4.614.88 3.717 1.526 10.294 1.938 19.729.546 9.405.949 15.548 1.211 18.43.394 2.851.663 5.171.806 6.959.112 1.656.158 3.328.137 5.015.255 3.444-.545 5.386-2.4 5.825-2.385.564-4.86-1.023-7.424-4.763-2.462-3.904-4.611-9.143-6.446-15.719-8.246 17.793-17.404 27.881-27.475 30.263-6.096 1.442-12.738.28-19.926-3.488-7.086-3.931-11.289-8.685-12.608-14.261-1.884-7.966-1.293-18.48 1.774-31.543 3.036-13.196 8.109-25.471 15.218-36.826 7.109-11.356 14.772-18.005 22.988-19.949Zm17.434 32.887c-2.92-12.347-6.832-17.94-11.735-16.781-5.168 1.223-10.319 6.367-15.451 15.432-5.164 8.932-9.031 18.61-11.604 29.032-2.572 10.422-3.215 18.355-1.927 23.798.534 2.257 1.901 3.896 4.102 4.918 2.169.889 4.512 1.035 7.03.44 6.228-1.474 12.263-7.317 18.103-17.531 5.808-10.347 8.808-21.922 8.998-34.724-.074-2.086.77-3.547 2.531-4.384l-.047-.2Z" fill="#2C2C2C"/><path d="M577.078 374.496c-5.681 1.406-10.16 5.733-12.035 11.288-35.756 105.93-135.906 182.237-253.93 182.237-71.571 0-136.57-28.062-184.622-73.774-4.233-4.027-10.191-5.756-15.858-4.354-11.985 2.965-16.519 17.519-7.625 26.098C156.934 568.008 230.289 600 311.113 600c132.787 0 245.415-86.35 284.843-205.986 3.868-11.736-6.903-22.48-18.878-19.518ZM35.02 265.316c6.477-1.603 11.283-7.009 12.479-13.586C70.22 126.777 179.565 31.98 311.113 31.98c85.532 0 161.676 40.075 210.728 102.457 4.116 5.235 10.859 7.754 17.316 6.157 10.949-2.709 15.897-15.462 8.974-24.385C493.274 45.503 407.505 0 311.113 0 163.245 0 40.375 107.079 15.747 247.96c-1.941 11.107 8.348 20.059 19.273 17.356ZM762 99.965c-70.865 135.77-101.974 46.218-201.73 98.823C570.247 41.184 675.9 137.079 762 99.965Z" fill="#BBF330"/></symbol><symbol id="icon-star" viewBox="0 0 34 32"><path fill="#ffe550" style="fill:var(--color1,#ffe550)" d="M15.421 1.037c.584-1.383 2.575-1.383 3.159 0l3.449 8.164a1.71 1.71 0 0 0 1.443 1.032l8.952.707c1.517.12 2.132 1.983.976 2.958l-6.821 5.752a1.67 1.67 0 0 0-.551 1.67l2.084 8.6c.353 1.457-1.257 2.609-2.556 1.828l-7.664-4.609a1.734 1.734 0 0 0-1.783 0l-7.664 4.609c-1.299.781-2.909-.371-2.556-1.828l2.084-8.6a1.67 1.67 0 0 0-.551-1.67L.601 13.898c-1.156-.975-.541-2.838.976-2.958l8.952-.707a1.71 1.71 0 0 0 1.443-1.032l3.449-8.164z"/></symbol></defs></svg>